<svg width="1200" height="630" viewBox="0 0 1200 630" xmlns="http://www.w3.org/2000/svg">
  <defs>
    <linearGradient id="gold" x1="0" y1="0" x2="1" y2="1">
      <stop offset="0" stop-color="#e7c873"/>
      <stop offset="1" stop-color="#c9a84c"/>
    </linearGradient>
  </defs>

  <rect width="1200" height="630" fill="#0f1117"/>

  <!-- header -->
  <g transform="translate(44,44) rotate(-38)">
    <path d="M-16 7 L20 0 L-16 -7 L-11 0 Z" fill="url(#gold)"/>
  </g>
  <text x="78" y="56" font-family="'Inter','Helvetica Neue',Arial,sans-serif" font-size="30" font-weight="700" letter-spacing="-0.5">
    <tspan fill="#f5f6f8">Bid</tspan><tspan fill="url(#gold)">Pilot</tspan>
  </text>
  <text x="79" y="80" font-family="'Inter','Helvetica Neue',Arial,sans-serif" font-size="15" font-weight="500" fill="#8b93a7">Supplier-side Tender Intelligence · End-to-end Pipeline</text>

  <!-- top-right pill -->
  <rect x="940" y="36" width="220" height="34" rx="17" fill="#161a22" stroke="#c9a84c" stroke-opacity="0.4"/>
  <text x="1050" y="58" text-anchor="middle" font-family="'Inter','Helvetica Neue',Arial,sans-serif" font-size="13" font-weight="500" fill="#c9a84c">Multi-tenant · ContextVar</text>

  <!-- ===== PIPELINE NODES ===== -->

  <!-- foundation connectors (subtle) -->
  <g stroke="#2a2f3a" stroke-opacity="0.5" stroke-width="1">
    <line x1="125" y1="400" x2="125" y2="478"/>
    <line x1="315" y1="400" x2="315" y2="478"/>
    <line x1="505" y1="400" x2="505" y2="478"/>
    <line x1="695" y1="400" x2="695" y2="478"/>
    <line x1="885" y1="400" x2="885" y2="478"/>
    <line x1="1075" y1="400" x2="1075" y2="478"/>
  </g>

  <!-- chevrons between nodes — all gold -->
  <g fill="none" stroke="#c9a84c" stroke-width="2.5" stroke-linecap="round" stroke-linejoin="round" stroke-opacity="0.7">
    <path d="M214 317 L226 325 L214 333"/>
    <path d="M404 317 L416 325 L404 333"/>
    <path d="M594 317 L606 325 L594 333"/>
    <path d="M784 317 L796 325 L784 333"/>
    <path d="M974 317 L986 325 L974 333"/>
  </g>

  <!-- NODE 0 – SOURCES -->
  <g>
    <rect x="41" y="250" width="168" height="150" rx="16" fill="#161a22" stroke="#c9a84c" stroke-opacity="0.55"/>
    <rect x="41" y="250" width="168" height="4" rx="2" fill="url(#gold)"/>
    <circle cx="125" cy="292" r="22" fill="none" stroke="#c9a84c" stroke-opacity="0.45"/>
    <g stroke="#c9a84c" stroke-width="2" fill="none" stroke-linecap="round">
      <path d="M113 285 a12 5 0 0 0 24 0 a12 5 0 0 0 -24 0"/>
      <path d="M113 285 V299 a12 5 0 0 0 24 0 V285"/>
    </g>
    <text x="125" y="338" text-anchor="middle" font-family="'Inter',Arial,sans-serif" font-size="17" font-weight="700" fill="#e7c873">SOURCES</text>
    <text x="125" y="360" text-anchor="middle" font-family="'Inter',Arial,sans-serif" font-size="13" fill="#aeb4c0">TED · ΚΗΜΔΗΣ</text>
    <text x="125" y="380" text-anchor="middle" font-family="'Inter',Arial,sans-serif" font-size="12" fill="#7c8392">public feeds</text>
  </g>

  <!-- NODE 1 – INGESTION -->
  <g>
    <rect x="231" y="250" width="168" height="150" rx="16" fill="#161a22" stroke="#c9a84c" stroke-opacity="0.55"/>
    <rect x="231" y="250" width="168" height="4" rx="2" fill="url(#gold)"/>
    <circle cx="315" cy="292" r="22" fill="none" stroke="#c9a84c" stroke-opacity="0.45"/>
    <path d="M303 283 H327 L318 293 V302 L312 298 V293 Z" stroke="#c9a84c" stroke-width="2" fill="none" stroke-linejoin="round"/>
    <text x="315" y="338" text-anchor="middle" font-family="'Inter',Arial,sans-serif" font-size="17" font-weight="700" fill="#e7c873">INGESTION</text>
    <text x="315" y="360" text-anchor="middle" font-family="'Inter',Arial,sans-serif" font-size="13" fill="#aeb4c0">normalize · embed</text>
    <text x="315" y="380" text-anchor="middle" font-family="'Inter',Arial,sans-serif" font-size="12" fill="#7c8392">APScheduler</text>
  </g>

  <!-- NODE 2 – MATCHING -->
  <g>
    <rect x="421" y="250" width="168" height="150" rx="16" fill="#161a22" stroke="#c9a84c" stroke-opacity="0.55"/>
    <rect x="421" y="250" width="168" height="4" rx="2" fill="url(#gold)"/>
    <circle cx="505" cy="292" r="22" fill="none" stroke="#c9a84c" stroke-opacity="0.45"/>
    <g stroke="#c9a84c" stroke-width="2" fill="none">
      <circle cx="500" cy="292" r="8"/>
      <circle cx="510" cy="292" r="8"/>
    </g>
    <text x="505" y="338" text-anchor="middle" font-family="'Inter',Arial,sans-serif" font-size="17" font-weight="700" fill="#e7c873">MATCHING</text>
    <text x="505" y="360" text-anchor="middle" font-family="'Inter',Arial,sans-serif" font-size="13" fill="#aeb4c0">semantic + rules</text>
    <text x="505" y="380" text-anchor="middle" font-family="'Inter',Arial,sans-serif" font-size="12" fill="#7c8392">explainable</text>
  </g>

  <!-- NODE 3 – ELIGIBILITY -->
  <g>
    <rect x="611" y="250" width="168" height="150" rx="16" fill="#161a22" stroke="#c9a84c" stroke-opacity="0.55"/>
    <rect x="611" y="250" width="168" height="4" rx="2" fill="url(#gold)"/>
    <circle cx="695" cy="292" r="22" fill="none" stroke="#c9a84c" stroke-opacity="0.45"/>
    <path d="M686 292 L693 299 L705 284" stroke="#c9a84c" stroke-width="2" fill="none" stroke-linecap="round" stroke-linejoin="round"/>
    <text x="695" y="338" text-anchor="middle" font-family="'Inter',Arial,sans-serif" font-size="17" font-weight="700" fill="#e7c873">ELIGIBILITY</text>
    <text x="695" y="360" text-anchor="middle" font-family="'Inter',Arial,sans-serif" font-size="13" fill="#aeb4c0">YAML · exclusions</text>
    <text x="695" y="380" text-anchor="middle" font-family="'Inter',Arial,sans-serif" font-size="12" fill="#7c8392">hot-reload</text>
  </g>

  <!-- NODE 4 – RAG DRAFTING -->
  <g>
    <rect x="801" y="250" width="168" height="150" rx="16" fill="#161a22" stroke="#c9a84c" stroke-opacity="0.55"/>
    <rect x="801" y="250" width="168" height="4" rx="2" fill="url(#gold)"/>
    <circle cx="885" cy="292" r="22" fill="none" stroke="#c9a84c" stroke-opacity="0.45"/>
    <g stroke="#c9a84c" stroke-width="2" fill="none" stroke-linejoin="round" stroke-linecap="round">
      <path d="M876 281 H889 L895 287 V303 H876 Z"/>
      <path d="M880 291 H891"/>
      <path d="M880 296 H891"/>
    </g>
    <text x="885" y="338" text-anchor="middle" font-family="'Inter',Arial,sans-serif" font-size="17" font-weight="700" fill="#e7c873">RAG DRAFTING</text>
    <text x="885" y="360" text-anchor="middle" font-family="'Inter',Arial,sans-serif" font-size="13" fill="#aeb4c0">ReAct · citations</text>
    <text x="885" y="380" text-anchor="middle" font-family="'Inter',Arial,sans-serif" font-size="12" fill="#7c8392">cited proposals</text>
  </g>

  <!-- NODE 5 – BID WORKSPACE -->
  <g>
    <rect x="991" y="250" width="168" height="150" rx="16" fill="#161a22" stroke="#c9a84c" stroke-opacity="0.55"/>
    <rect x="991" y="250" width="168" height="4" rx="2" fill="url(#gold)"/>
    <circle cx="1075" cy="292" r="22" fill="none" stroke="#c9a84c" stroke-opacity="0.45"/>
    <g stroke="#c9a84c" stroke-width="2" fill="none" stroke-linejoin="round">
      <path d="M1065 282 h8 v8 h-8 Z"/>
      <path d="M1077 282 h8 v8 h-8 Z"/>
      <path d="M1065 294 h8 v8 h-8 Z"/>
      <path d="M1077 294 h8 v8 h-8 Z"/>
    </g>
    <text x="1075" y="338" text-anchor="middle" font-family="'Inter',Arial,sans-serif" font-size="16" font-weight="700" fill="#e7c873">BID WORKSPACE</text>
    <text x="1075" y="360" text-anchor="middle" font-family="'Inter',Arial,sans-serif" font-size="13" fill="#aeb4c0">feed · drafts</text>
    <text x="1075" y="380" text-anchor="middle" font-family="'Inter',Arial,sans-serif" font-size="12" fill="#7c8392">React 19 · TS</text>
  </g>

  <!-- full-width pipeline caption -->
  <text x="600" y="432" text-anchor="middle" font-family="'Inter',Arial,sans-serif" font-size="12" font-weight="500" fill="#c9a84c" fill-opacity="0.6" letter-spacing="0.8">End-to-end tender intelligence pipeline</text>

  <!-- foundation bar -->
  <rect x="41" y="450" width="1118" height="58" rx="14" fill="#12161d" stroke="#2a2f3a"/>
  <text x="64" y="485" font-family="'Inter',Arial,sans-serif" font-size="12" font-weight="700" fill="#c9a84c" letter-spacing="1">FOUNDATION</text>
  <text x="600" y="485" text-anchor="middle" font-family="'Inter',Arial,sans-serif" font-size="15" fill="#aeb4c0">MongoDB Atlas  ·  ChromaDB Vector Store  ·  Audit Log (fire-and-forget)</text>

  <!-- footer motto -->
  <text x="600" y="546" text-anchor="middle" font-family="'Inter',Arial,sans-serif" font-size="14" font-style="italic" fill="#8b7a45">"I build things I'd trust with something that matters."</text>
</svg>
